<?xml version="1.0" encoding="utf-8"?>
<!-- Generator: Adobe Illustrator 19.0.0, SVG Export Plug-In . SVG Version: 6.00 Build 0)  -->
<svg version="1.1"
	 id="svg2" xmlns:inkscape="http://www.inkscape.org/namespaces/inkscape" xmlns:rdf="http://www.w3.org/1999/02/22-rdf-syntax-ns#" xmlns:ns1="http://sozi.baierouge.fr" xmlns:cc="http://creativecommons.org/ns#" xmlns:sodipodi="http://sodipodi.sourceforge.net/DTD/sodipodi-0.dtd" xmlns:dc="http://purl.org/dc/elements/1.1/" inkscape:version="0.91 r13725"
	 xmlns="http://www.w3.org/2000/svg" xmlns:xlink="http://www.w3.org/1999/xlink" x="0px" y="0px" viewBox="-284 382.1 42 29.9"
	 style="enable-background:new -284 382.1 42 29.9;" xml:space="preserve">
<style type="text/css">
	.st0{filter:url(#Adobe_OpacityMaskFilter);}
	.st1{clip-path:url(#SVGID_2_);fill-opacity:0.1406;}
	.st2{mask:url(#mask22);}
	.st3{clip-path:url(#SVGID_4_);}
	.st4{clip-path:url(#SVGID_6_);}
	.st5{fill:#9F9FA1;}
	.st6{fill:#858687;}
	.st7{fill:#B8B8BA;}
</style>
<g>
	<g>
		<g id="g10" transform="matrix(1.25 0 0 -1.25 0 29.917)">
			<g id="g12">
				<g id="g14">
					<defs>
						<filter id="Adobe_OpacityMaskFilter" filterUnits="userSpaceOnUse" x="-227.2" y="296.7" width="34" height="9">
							<feColorMatrix  type="matrix" values="1 0 0 0 0  0 1 0 0 0  0 0 1 0 0  0 0 0 1 0"/>
						</filter>
					</defs>
					<mask maskUnits="userSpaceOnUse" x="-227.2" y="296.7" width="34" height="9" id="mask22">
						<g id="g24" class="st0">
							<g>
								<defs>
									<rect id="SVGID_1_" x="-230.6" y="-289.8" width="34" height="9"/>
								</defs>
								<clipPath id="SVGID_2_">
									<use xlink:href="#SVGID_1_"  style="overflow:visible;"/>
								</clipPath>
								<g id="g26">
									<path id="path28" inkscape:connector-curvature="0" class="st1" d="M-227.2-281.7h27.2v-7.2h-27.2
										C-227.2-288.9-227.2-281.7-227.2-281.7z"/>
								</g>
							</g>
						</g>
					</mask>
					<g id="g30" class="st2">
						<defs>
							<rect id="SVGID_3_" x="-231.4" y="-306.9" width="42.5" height="11.2"/>
						</defs>
						<clipPath id="SVGID_4_">
							<use xlink:href="#SVGID_3_"  style="overflow:visible;"/>
						</clipPath>
						<g id="g42" class="st3">
							<g id="g44">
								<g id="g46" transform="translate(0 -.066566)">
									<g id="g50">
										<defs>
											<rect id="SVGID_5_" x="-231.4" y="-306.8" width="42.5" height="11.3"/>
										</defs>
										<clipPath id="SVGID_6_">
											<use xlink:href="#SVGID_5_"  style="overflow:visible;"/>
										</clipPath>
										<g id="g52" class="st4">
											<g id="g54">
												<path id="path56" inkscape:connector-curvature="0" d="M-193.7-300c0.1-0.1,0.1-0.2,0.1-0.4c0-0.2-0.1-0.4-0.3-0.5
													c-0.1-0.1-0.4-0.2-0.8-0.4c-0.7-0.2-1.2-0.4-1.5-0.5c-0.5-0.2-0.8-0.3-1-0.4c-0.3-0.2-0.6-0.4-0.9-0.6
													c-0.3-0.2-0.7-0.3-1.2-0.4c-0.5-0.1-1-0.3-1.4-0.6c-0.5-0.3-0.9-0.5-1.1-0.6c-0.5-0.2-0.8-0.3-1.1-0.5
													c-0.5-0.2-0.9-0.4-1.4-0.4c-0.6,0-1.3,0-2-0.1c-0.5,0-1.5-0.1-2.9-0.2c-0.8-0.1-1.3-0.1-1.4,0c-0.5,0.1-0.8,0.1-1,0.2
													c-0.7,0.1-1.7,0.1-2.9,0.1c-0.7,0-1.2,0-1.4,0.1c-0.2,0-0.7,0.2-1.6,0.6c-0.7,0.3-1.1,0.5-1.2,0.5
													c-0.1,0.1-0.3,0.2-0.6,0.4c-0.3,0.2-0.5,0.3-0.8,0.4c-0.3,0.1-0.5,0.2-0.8,0.4c-0.2,0.1-0.5,0.3-0.9,0.7
													c-0.4,0.3-0.8,0.5-1.4,0.8l-0.7,0.4c0.1-0.1,0-0.1-0.2,0c-0.2,0-0.5,0.2-1.1,0.5c-0.5,0.3-0.9,0.4-1,0.5
													c-0.9,0.3-1.3,0.5-1.2,0.8c0.3,0.2,0.5,0.4,0.6,0.4c0.2,0.1,0.5,0.3,0.9,0.6c0.1,0.1,0.3,0.3,0.6,0.7
													c0.2,0.3,0.4,0.4,0.6,0.5c0.4,0.2,2.1,0.2,5,0.2c0.6,0,2.9-0.1,6.9-0.2c3.9-0.1,6.6-0.3,8-0.4c4.7-0.6,7.7-1,8.8-1.3
													c1.1-0.2,1.5-0.4,1.4-0.4c-0.1,0-0.2-0.1-0.5-0.1C-194.9-299.3-193.7-300-193.7-300z"/>
											</g>
										</g>
									</g>
								</g>
							</g>
						</g>
					</g>
				</g>
				<path id="path58" inkscape:connector-curvature="0" class="st5" d="M-196-300.3c-3.7-1.9-6.3-3-7.8-3.2c-2-0.5-3.7-0.8-5.2-1
					c-2.7-0.4-5-0.1-6.9,0.7c-3,1.3-6.3,2.8-9.8,4.5l1.3,3c0.4,0.4,1.3,1.1,2.6,2.2c0.7,0.6,1.2,1.2,1.6,2c0.4,0.9,0.6,1.5,0.8,1.8
					c0.2,0.3,0.7,0.8,1.5,1.5c0.5,0.4,1.1,1.1,1.8,2.2c0.6,0.9,1.5,1.8,2.8,2.7l3.2,2.3c1.1-0.6,2.9-2.5,5.6-5.5
					c1.6-1.9,3.2-3.4,4.8-4.6c0.8-0.6,1.4-1,1.9-1.2l-0.4-1c-0.2-0.8,0-1.7,0.4-2.6C-197.6-296.7-196-300.3-196-300.3z"/>
				<path id="path60" inkscape:connector-curvature="0" class="st6" d="M-210.3-285.5c0.1,0.1,0.2,0.3,0.3,0.7
					c0.1,0.5,0.3,0.8,0.4,1.1c0.3,0.6,0.4,1.1,0.2,1.6l2.4-2.1c0.6-0.4,1.7-1.8,3.4-4.1l0.2-0.5c-0.2-0.9-0.7-1.5-1.2-1.7
					c-0.4-0.2-0.7-0.4-0.8-0.8c-0.2-0.4-0.3-0.7-0.4-0.8c-0.1-0.3-0.2-0.9-0.3-2c-0.1-0.8,0.1-1.8,0.6-3.1c0.2-0.6,0.4-0.7,0.6-0.4
					l0.8,1.1c0.1,0.1,0.5,0.5,1.3,1.4c0.2,0.2,0.6,0.3,1,0.4c0.3,0,0.9,0.1,1.8,0.1c0.6,0.1,0.9,0.2,1,0.4c0.1,0.1,0.1,0.3,0.1,0.6
					c0.2,0.3,0.7,0.5,1.3,0.6l0.4-1c0.2-0.7,0.3-1.3,0.3-1.6c0-0.3,0.1-0.7,0.2-1.3c0.1-0.3,0.3-0.9,0.4-1.7c0.1-0.5,0.4-0.9,1-1.3
					c-0.5-0.5-1.1-0.9-1.6-1.2c-0.6-0.4-1.8-0.9-3.5-1.5c-0.5-0.2-1-0.4-1.4-0.7c-0.5-0.3-0.8-0.5-0.9-0.6c-0.4-0.2-0.7-0.3-1.1-0.4
					c-0.3-0.1-0.8-0.1-1.7-0.2l-4.1-0.3c-1.2-0.1-2.5-0.1-3.8,0.1c-1.3,0.1-2.3,0.3-3,0.6c-0.4,0.2-0.8,0.4-1.1,0.7
					c-0.3,0.3-0.6,0.5-1,0.7c-0.8,0.3-3.1,1.4-7,3.5c1.9-0.5,3.2-0.8,4-0.9c0.4,0,0.7-0.1,0.8-0.2c0.1-0.1,0.4-0.3,0.9-0.7
					c0.5-0.3,0.9-0.5,1.2-0.6c0.2-0.1,0.6-0.1,1.2-0.2c0.4-0.1,0.7-0.1,0.9-0.1c0.4,0.1,0.7,0.1,1,0.1c0.8,0,1.2-0.1,1.4-0.3
					c1-0.2,1.7-0.2,2.2-0.1c0.3,0.1,0.6,0.3,0.8,0.5c0.2,0.3,0.4,0.5,0.6,0.6c0.2,0.1,0.2,0.4,0.2,0.9c-0.1,0.9-0.1,1.4-0.1,1.5
					c0,0.5-0.1,1.1-0.4,1.8l-0.4,1c-0.2,1-0.4,1.8-0.4,2.4c-0.2,1.1-0.4,2.1-0.4,2.8c0,0.5,0.3,1.4,0.9,2.8
					C-210.9-286.5-210.5-285.7-210.3-285.5z"/>
				<path id="path62" inkscape:connector-curvature="0" class="st6" d="M-219.1-293.2c0.5,0.7,0.9,0.9,1.2,0.6
					c0.2-0.1,0.4-0.4,0.4-0.8c0-0.4-0.5-0.9-1.6-1.4c-0.4-0.2-0.5,0-0.4,0.4C-219.5-293.9-219.4-293.5-219.1-293.2z"/>
				<path id="path64" inkscape:connector-curvature="0" class="st6" d="M-212.7-298.1c0.5,0,0.7-0.4,0.5-1.2
					c-0.2-0.8-0.6-1.4-1.2-1.8c-0.5-0.3-0.9-0.4-1-0.2c-0.1,0.5-0.3,0.8-0.6,1.1c-0.3,0.5-0.5,0.7-0.6,0.8c-0.1,0.1-0.1,0.3-0.1,0.6
					C-215.7-298.3-214.7-298.1-212.7-298.1z"/>
				<path id="path66" inkscape:connector-curvature="0" class="st6" d="M-217.7-299c0.3-0.1,0.4-0.3,0.4-0.7c0-0.4-0.3-0.5-0.7-0.5
					c-0.5,0-0.6,0.3-0.5,0.7C-218.3-299.1-218.1-299-217.7-299z"/>
				<path id="path68" inkscape:connector-curvature="0" class="st6" d="M-202.3-292.3c0.6-0.1,1-0.3,1.2-0.6
					c0.2-0.3,0.1-0.5-0.3-0.8c-0.3-0.2-0.6-0.3-0.7-0.2c-0.2,0.2-0.5,0.3-0.9,0.5c-0.6,0.2-0.8,0.5-0.6,0.8
					C-203.6-292.3-203.1-292.2-202.3-292.3z"/>
				<path id="path70" inkscape:connector-curvature="0" class="st6" d="M-202.7-290.9c0.4,0,0.6-0.1,0.6-0.4
					c-0.1-0.3-0.3-0.4-0.7-0.4c-0.4,0-0.6,0.1-0.6,0.4C-203.4-291.1-203.1-290.9-202.7-290.9z"/>
				<path id="path72" inkscape:connector-curvature="0" class="st6" d="M-214.7-287.8c0.5-0.1,0.7-0.2,0.4-0.5
					c-0.2-0.3-0.6-0.5-1.2-0.6c-0.6-0.1-0.8,0.1-0.5,0.5C-215.7-288-215.3-287.8-214.7-287.8z"/>
				<path id="path74" inkscape:connector-curvature="0" class="st6" d="M-223.6-297.9c0.2,0,0.3-0.2,0.2-0.6
					c-0.1-0.4-0.4-0.6-0.8-0.6c-0.4,0-0.5,0.2-0.2,0.6C-224.2-298.1-223.9-297.9-223.6-297.9z"/>
				<path id="path76" inkscape:connector-curvature="0" class="st7" d="M-209.3-282.3c0.1-0.2,0.1-0.8-0.2-1.8
					c-0.2-1-0.4-1.5-0.6-1.7c-0.5-0.5-1.1-1.6-1.7-3.1c-0.3-0.7-0.4-1.1-0.4-1.2c-0.1-0.3,0-0.7,0-1.2c0.1-0.4,0.2-1,0.3-1.6
					c0.1-0.5,0.2-1,0.2-1.3c0-0.4,0-0.7,0-1c-0.2,0.9-0.4,1.7-0.6,2.6c-0.3,1.1-0.4,2.5,0,4c0.1,0.3,0.2,0.7,0.4,1.2
					c0.2,0.5,0.3,0.9,0.3,1.3c0,0.2,0,0.5,0.1,1c0,0.2,0,0.3-0.1,0.4c-0.1,0.1-0.2,0.2-0.2,0.3c-0.1,0.1-0.3,0.1-0.6,0
					c-1.8-0.8-2.8-1.3-2.9-1.4l0.4,0.5c0.4,0.4,0.8,0.7,1.2,1c0.6,0.5,1.4,1.1,2.4,1.8c0.7,0.5,1.2,0.8,1.5,0.9
					C-209.7-281.8-209.5-282-209.3-282.3z"/>
				<path id="path78" inkscape:connector-curvature="0" class="st7" d="M-216.9-290.9c-0.2,0-0.6,0.2-1.2,0.6
					c-0.3,0.2-0.6,0.3-0.8,0.2l-0.2-0.2c0.1,0.3,0.3,0.6,0.6,0.7l1.1,0.9l0.8-0.2l1-0.6c0.1-0.1,0.2-0.5,0.4-1l0.8-1.4
					c-0.2,0.1-0.4,0.2-0.5,0.4c-0.3,0.3-0.7,0.5-1.2,0.6c-0.1,0.1-0.2,0.1-0.4,0C-216.5-290.9-216.9-290.9-216.9-290.9z"/>
				<path id="path80" inkscape:connector-curvature="0" class="st7" d="M-222.3-296.3c-0.2-0.1-0.4-0.1-0.6-0.1l-1.4,0.1l0.8,0.8
					l0.9,0.4c0.4,0.1,0.8,0.1,1.2,0c0.2,0,0.5-0.2,1-0.6c0.2-0.1,0.4-0.3,0.6-0.6c0.1-0.2,0.6-0.3,1.4-0.5h-1.6
					c-0.3,0-0.5,0-0.8,0.1c-0.4,0.2-0.8,0.4-1.1,0.4C-222-296.3-222.2-296.3-222.3-296.3z"/>
				<path id="path82" inkscape:connector-curvature="0" class="st5" d="M-208.6-290c0,0.4,0.3,0.8,0.9,1.2c0.2,0.1,0.5,0.3,0.8,0.6
					c0.3,0.2,0.5,0.4,0.5,0.5l1-0.3c0.1,0,0.2-0.1,0.3-0.2c0-0.2-0.1-0.5-0.2-0.6c-0.1-0.1-0.2-0.2-0.4-0.3
					c-0.3-0.1-0.6-0.1-0.8-0.2c-0.3-0.1-0.5-0.1-0.5-0.2c0-0.1-0.1-0.2-0.2-0.3c-0.2-0.1-0.5-0.4-0.8-0.8c-0.3-0.4-0.5-0.7-0.6-0.8
					C-208.6-290.7-208.6-290.2-208.6-290z"/>
				<path id="path84" inkscape:connector-curvature="0" class="st5" d="M-199.1-297.6h-1.3c-0.2,0-0.3-0.1-0.3-0.2
					c-0.2-0.4-0.3-0.7-0.4-0.9c-0.3-0.6-0.7-1.1-1.2-1.6c0.1,0.5,0.2,0.8,0.3,1.2c0.1,0.2,0.2,0.4,0.3,0.5c0.1,0.2,0.2,0.3,0.2,0.4
					c0.1,0.3,0.2,0.6,0.4,0.8c0.6,0.6,1.1,0.9,1.3,0.9l1.1-0.2c0.1-0.1,0.1-0.1,0-0.2c-0.1-0.1-0.2-0.2-0.2-0.2
					c-0.1-0.2,0-0.6,0.2-1.2c0-0.2,0-0.3-0.2-0.1C-198.8-297.8-199-297.6-199.1-297.6z"/>
				<path id="path86" inkscape:connector-curvature="0" class="st5" d="M-207.3-297.3l0.3-1.2l0.2-0.4c0-0.1,0-0.2-0.1-0.2
					c-0.2-0.1-0.4-0.2-0.5-0.2c-0.2-0.1-0.3-0.2-0.4-0.3c-0.2-0.3-0.3-0.6-0.4-0.7c-0.2-0.3-0.3-0.4-0.2-0.3
					c0.1,0.2,0.1,0.3,0.1,0.4c-0.3,0.5-0.4,0.8-0.4,1c0,0.2,0.1,0.4,0.3,0.7c0.2,0.4,0.4,0.6,0.6,0.8L-207.3-297.3z"/>
			</g>
		</g>
	</g>
</g>
</svg>
